/* XPM */
static char *_77d2ae99384425ae083eae137c19588pBG7rMNIIJ3l17oY[] = {
/* columns rows colors chars-per-pixel */
"64 64 7 1 ",
"  c black",
". c #2F3699",
"X c #6F3198",
"o c #00B7EF",
"O c #709AD1",
"+ c #FFA3B1",
"@ c #84664C",
/* pixels */
"@@@@@@@@@@@@@@@@@@@@@@@@@@@@@@@@@@@@@@@@@@@@@@@@@@@@@@@@@@@@@@@@",
"@@@@@@@@@@@@@@@@@@@@@@@@@@@@@@@@@@@@@@@@@@@@@@@@@@@@@@@@@@@@@@@@",
"@@@@@@@@@@@@@@@@@@@@@@@@@@@@@@@@@@@@@@@@@@@@@@@@@@@@@@@@@@@@@@@@",
"@@@@@@@@@@@@@@@@@@@@@@@@@@@@@@@@@@@@@@@@@@@@@@@@@@@@@@@@@@@@@@@@",
"@@@@@@@@@@@@@@@@@@@@@@@@@@@@@@@@@@@@@@@@@@@@@@@@@@@@@@@@@@@@@@@@",
"@@@@@@@@@@@@@@@@@@@@@@@@@@@@@@@@@@@@@@@@@@@@@@@@@@@@@@@@@@@@@@@@",
"@@@@@@@@@@@@@@@@@@@@@@@@@@@@@@@@@@@@@@@@@@@@@@@@@@@@@@@@@@@@@@@@",
"@@@@@@@@@@@@@@@@@@@@@@@@@@@@@@@@@@@@@@@@@@@@@@@@@@@@@@@@@@@@@@@@",
"@@@@@@@@@@@@@@@@@@@@@@@@@@@@@@@@@@@@@@@@@@@@@@@@@@@@@@@@@@@@@@@@",
"@@@@@@@@@@@@@@@@@@@@@@@@@@@@@@@@@@@@@@@@@@@@@@@@@@@@@@@@@@@@@@@@",
"@@@@                                                       @@@@@",
"@@@@ +++++++++++++++++++++++++++++++++++++++++++++++++++++ @@@@@",
"@@@@ +     +    +++++++++++++++++++++++++++XXX+XXXX+XXX+++ @@@@@",
"@@@@ +++ +++ ++++++++++++OO++++++++++++++++XXX+X++XX++X+++ @@@@@",
"@@@@ +++ +++ ++++++++++++OOO+++++++++++++++XXX+XXXXXXXX+++ @@@@@",
"@@@@ +++ + +    + +++++++O.OOO+++OOOOO++++++++++++++++++++ @@@@@",
"@@@@ +++++++++++++++++++OO...OOOOO.OO+++++++++++++++++++++ @@@@@",
"@@@@ +++++++++++++++++++O.........OO++++++++++++++++++++++ @@@@@",
"@@@@ +++++++++++++++++++O.........OO++++++++++++++++++++++ @@@@@",
"@@@@ ++++++++++++++++++OO..........OO++++++++OOOO+++++++++ @@@@@",
"@@@@ +++++++++++++++++OOOOOO.........OO++++++++OOOOO++++++ @@@@@",
"@@@@ +++++++++++++++++OO+++O...OOOO...OO++++++++OO.OOO++++ @@@@@",
"@@@@ +++++++++++++++++++++OO.OOO++OOOOOO+++++++++OO..OO+++ @@@@@",
"@@@@ +++++++++++++++++++++O.OO++++++++++++++++++++O...OO++ @@@@@",
"@@@@ +++++ooooooo+++++++++OOO+++++++++++++++++++++OO....O+ @@@@@",
"@@@@ +++++ooooo+++++++++++O++++++++++++++++++++++++O....OO @@@@@",
"@@@@ ++++++++++++++++++++++++++++++++++++++++++++++OO....OO@@@@@",
"@@@@ +++++++++++++++++++++++++++++++++++++++++++++++O.....O@@@@@",
"@@@@ ++++++++++ooooo++++++++++++++++++++++++++++++++O..... @@@@@",
"@@@@ +++++oooooo++++++++++++++++++++++++++++++++++++OO.... @@@@@",
"@@@@ ++++++++++++++++++++++++++++++++++++++++++++++++O.... @@@@@",
"@@@@ +++++++++oo++ooo++++++++++++++++++++++++++++++++O.... @@@@@",
"@@@@ ++++++++o+oooo+o+++++OO+++++++++++++++++++++++++O.... @@@@@",
"@@@@ +++++++++++++++++++++OOO+++++++++++++++++++++++OO.... @@@@@",
"@@@@ +++++++++++++++++++++OOOO++XX++++++++++++++++++O..... @@@@@",
"@@@@ ++++++++++++++++++++++OO.OOXX++++++++++++++++++O..... @@@@@",
"@@@@ +++++++++++++++++++XXX.OOXXXX+++++++++++++++++O...... @@@@@",
"@@@@ ++++XX+++++XXX++++XX+XXXOXXXXXX+++++++++++++OO....... @@@@@",
"@@@@ ++XX+XXX+XX++XX++XX++++X.O.XX.OOOO++++++OOOOO........ @@@@@",
"@@@@ ++X++++X+X++++XX+X++++++XOXXXXX...OOOOOO............. @@@@@",
"@@@@ ++++++XX+X+++++X+X++++++X+OXX..XX.................... @@@@@",
"@@@@ ++++++X++X+++++X+X++++++X++XX.XX..................... @@@@@",
"@@@@ +++XXX+++X+++++X+X+++++XX++XXX....................... @@@@@",
"@@@@ ++XX+++++XX+++XX++X+++XX+++XXOO...................... @@@@@",
"@@@@ ++X+++++++XXXXX+++XXXXX+++++++OO..................... @@@@@",
"@@@@ ++XXXXXX+++++XX++++++++++++++++O..................... @@@@@",
"@@@@ +++++++++++++++++++++++++++++++OO.................... @@@@@",
"@@@@                                                       @@@@@",
"@@@@@@@@@@@@@@@@@@@@@@@@@@@@@@@@@@@@@@@@@@@@@@@@@@@@@@@@@@@@@@@@",
"@@@@@@@@@@@@@@@@@@@@@@@@@@@@@@@@@@@@@@@@@@@@@@@@@@@@@@@@@@@@@@@@",
"@@@@@@@@@@@@@@@@@@@@@@@@@@@@@@@@@@@@@@@@@@@@@@@@@@@@@@@@@@@@@@@@",
"@@@@@@@@@@@@@@@@@@@@@@@@@@@@@@@@@@@@@@@@@@@@@@@@@@@@@@@@@@@@@@@@",
"@@@@@@@@@@@@@@@@@@@@@@@@@@@@@@@@@@@@@@@@@@@@@@@@@@@@@@@@@@@@@@@@",
"@@@@@@@@@@@@@@@@@@@@@@@@@@@@@@@@@@@@@@@@@@@@@@@@@@@@@@@@@@@@@@@@",
"@@@@@@@@@@@@@@@@@@@@@@@@@@@@@@@@@@@@@@@@@@@@@@@@@@@@@@@@@@@@@@@@",
"@@@@@@@@@@@@@@@@@@@@@@@@@@@@@@@@@@@@@@@@@@@@@@@@@@@@@@@@@@@@@@@@",
"@@@@@@@@@@@@@@@@@@@@@@@@@@@@@@@@@@@@@@@@@@@@@@@@@@@@@@@@@@@@@@@@",
"@@@@@@@@@@@@@@@@@@@@@@@@@@@@@@@@@@@@@@@@@@@@@@@@@@@@@@@@@@@@@@@@",
"@@@@@@@@@@@@@@@@@@@@@@@@@@@@@@@@@@@@@@@@@@@@@@@@@@@@@@@@@@@@@@@@",
"@@@@@@@@@@@@@@@@@@@@@@@@@@@@@@@@@@@@@@@@@@@@@@@@@@@@@@@@@@@@@@@@",
"@@@@@@@@@@@@@@@@@@@@@@@@@@@@@@@@@@@@@@@@@@@@@@@@@@@@@@@@@@@@@@@@",
"@@@@@@@@@@@@@@@@@@@@@@@@@@@@@@@@@@@@@@@@@@@@@@@@@@@@@@@@@@@@@@@@",
"@@@@@@@@@@@@@@@@@@@@@@@@@@@@@@@@@@@@@@@@@@@@@@@@@@@@@@@@@@@@@@@@",
"@@@@@@@@@@@@@@@@@@@@@@@@@@@@@@@@@@@@@@@@@@@@@@@@@@@@@@@@@@@@@@@@"
};
