/* XPM */
static char *_091c20559094f70904fa610dac50a7aJ130wuLqygUjd1gk[] = {
/* columns rows colors chars-per-pixel */
"64 64 215 2 ",
"   c #020101",
".  c #0B0200",
"X  c #01020A",
"o  c #1E0D00",
"O  c #1C180F",
"+  c #071015",
"@  c #030915",
"#  c #250100",
"$  c #241303",
"%  c #291B09",
"&  c #27180B",
"*  c #391A00",
"=  c #261D12",
"-  c #2A1E13",
";  c #27171A",
":  c #242014",
">  c #2C2316",
",  c #372312",
"<  c #2C2421",
"1  c #36332E",
"2  c #252D34",
"3  c #343232",
"4  c #431C0B",
"5  c #442503",
"6  c #6A3F0A",
"7  c #4C3C22",
"8  c #403D38",
"9  c #7E4309",
"0  c #664013",
"q  c #7B4815",
"w  c #77603E",
"e  c #73552F",
"r  c #253344",
"t  c #57544B",
"y  c #535355",
"u  c #565A5C",
"i  c #595B5C",
"p  c #595756",
"a  c #5C615B",
"s  c #6D655A",
"d  c #5C5C63",
"f  c #716B75",
"g  c #AC6815",
"h  c #B56A1C",
"j  c #B96D1E",
"k  c #B46718",
"l  c #BD731F",
"z  c #BC7E1D",
"x  c #B1751D",
"c  c #8B6029",
"v  c #82633B",
"b  c #B46C23",
"n  c #B96D23",
"m  c #BC7323",
"M  c #B97F2D",
"N  c #B26B33",
"B  c #A97829",
"V  c #CC741A",
"C  c #D17B18",
"Z  c #C27524",
"A  c #C47C23",
"S  c #CC7E23",
"D  c #C2762B",
"F  c #CA7D2A",
"G  c #C87726",
"H  c #D17F2E",
"J  c #C27A31",
"K  c #C97D30",
"L  c #8B7158",
"P  c #887B6D",
"I  c #917F6B",
"U  c #867C70",
"Y  c #CC7B46",
"T  c #BD8518",
"R  c #BF832D",
"E  c #BD8121",
"W  c #BA813A",
"Q  c #CA831C",
"!  c #D7881F",
"~  c #CD8324",
"^  c #C4822A",
"/  c #CD832B",
"(  c #CC892C",
")  c #C28020",
"_  c #D28324",
"`  c #D2852B",
"'  c #D7882C",
"]  c #D28825",
"[  c #C78531",
"{  c #CE8434",
"}  c #CD8738",
"|  c #D38432",
" . c #D58A34",
".. c #D48B3C",
"X. c #D5883A",
"o. c #DF913C",
"O. c #E39231",
"+. c #E69238",
"@. c #93816D",
"#. c #938373",
"$. c #CD8145",
"%. c #D48C41",
"&. c #D98C42",
"*. c #DC8F49",
"=. c #D39442",
"-. c #DD9245",
";. c #D49A44",
":. c #DB914C",
">. c #D79B49",
",. c #DA9A4A",
"<. c #D48853",
"1. c #CB9753",
"2. c #D69B54",
"3. c #CB9245",
"4. c #E29244",
"5. c #E59A4A",
"6. c #E99C4D",
"7. c #E29A47",
"8. c #EA9F53",
"9. c #EDA04D",
"0. c #EEA354",
"q. c #E6A958",
"w. c #F2A555",
"e. c #F4AC56",
"r. c #F9AE57",
"t. c #F3A759",
"y. c #F2A85A",
"u. c #F9AF58",
"i. c #FBB15A",
"p. c #F4A549",
"a. c #DCA369",
"s. c #D2A56A",
"d. c #C7A679",
"f. c #E4AC6C",
"g. c #F0A762",
"h. c #E6B479",
"j. c #FFC27F",
"k. c #8B8B8B",
"l. c #959594",
"z. c #9B9A9B",
"x. c #999A9A",
"c. c #8E948A",
"v. c #A39D9D",
"b. c #9D9AA1",
"n. c #B0B2B2",
"m. c #CFB98A",
"M. c #DAB78B",
"N. c #D5BA9A",
"B. c #F1BF8A",
"V. c #E0B990",
"C. c #E3B584",
"Z. c #DFBDA1",
"A. c #E9C088",
"S. c #E9C99B",
"D. c #FCC994",
"F. c #EDCEA5",
"G. c #EECDAC",
"H. c #F5CEAA",
"J. c #F2CBA2",
"K. c #F2D2A4",
"L. c #F5D3AC",
"P. c #FAD4AB",
"I. c #F5DAAD",
"U. c #FADAAC",
"Y. c #FED5A3",
"T. c #E6D2B2",
"R. c #F5D5B5",
"E. c #F5DFB6",
"W. c #FCDBB3",
"Q. c #F3DBBA",
"!. c #FADEBA",
"~. c #FCD5B5",
"^. c #ECD3AA",
"/. c #FFE3AC",
"(. c #FEE3BB",
"). c #FAE4B6",
"_. c #C6CACD",
"`. c #FFDDC9",
"'. c #DFE0D8",
"]. c #F6E6C2",
"[. c #FCE4C4",
"{. c #FEEBC5",
"}. c #FCE6CD",
"|. c #F7E8CB",
" X c #FEECCE",
".X c #FDF1CD",
"XX c #FFF3C7",
"oX c #F7E8D2",
"OX c #FEECD4",
"+X c #FCE7DA",
"@X c #FEEDDB",
"#X c #FCE7D2",
"$X c #FFF1D5",
"%X c #FFF1DB",
"&X c #F3F5DF",
"*X c #DDEAE1",
"=X c #E4E4E3",
"-X c #EAEEEF",
";X c #E8EAEA",
":X c #F3EFEB",
">X c #FEEEE1",
",X c #EDF2EE",
"<X c #FDF2E4",
"1X c #FEFAEA",
"2X c #84664C",
"3X c #84664C",
"4X c #84664C",
"5X c #84664C",
"6X c #84664C",
"7X c #84664C",
"8X c #84664C",
"9X c #84664C",
"0X c #84664C",
"qX c #84664C",
"wX c #84664C",
/* pixels */
"qXqXqXqXqXqXqXqXqXqXqXqXqXqXqXqXqXqXqXqXqXqXqXqXqXqXqXqXqXqXqXqXqXqXqXqXqXqXqXqXqXqXqXqXqXqXqXqXqXqXqXqXqXqXqXqXqXqXqXqXqXqXqXqX",
"qXqXqXqXqXqXqXqXqXqXqXqXqXqXqXqXqXqXqXqXqXqXqXqXqXqXqXqXqXqXqXqXqXqXqXqXqXqXqXqXqXqXqXqXqXqXqXqXqXqXqXqXqXqXqXqXqXqXqXqXqXqXqXqX",
"qXqXqXqXqXqXqXqXqXqXqXqXqXqXqXqXqXqXqXqXqXqXqXqXqXqXqXqXqXqXqXqXqXqXqXqXqXqXqXqXqXqXqXqXqXqXqXqXqXqXqXqXqXqXqXqXqXqXqXqXqXqXqXqX",
"qXqXqXqXqXqXqXqXqXqXqXqXqXqXqXqXqXqXqXqXqXqXqXqXqXqXqXqXqXqXqXqXqXqXqXqXqXqXqXqXqXqXqXqXqXqXqXqXqXqXqXqXqXqXqXqXqXqXqXqXqXqXqXqX",
"qXqXqXqXqXqXqXqXqXqXqXqXqXqXqXqXqXqXqXqXqXqXqXqXqXqXqXqXqXqXqXqXqXqXqXqXqXqXqXqXqXqXqXqXqXqXqXqXqXqXqXqXqXqXqXqXqXqXqXqXqXqXqXqX",
"qXqXqXqXqXqXqXqXqXqXqXqXqXqXqXqXqXqXqXqXqXqXqXqXqXqXqXqXqXqXqXqXqXqXqXqXqXqXqXqXqXqXqXqXqXqXqXqXqXqXqXqXqXqXqXqXqXqXqXqXqXqXqXqX",
"qXqXqXqXqXqXqXqXqXqXqXqXqXqXqXqXqXqXqXqXqXqXqXqXqXqXqXqXqXqXqXqXqXqXqXqXqXqXqXqXqXqXqXqXqXqXqXqXqXqXqXqXqXqXqXqXqXqXqXqXqXqXqXqX",
"qXqXqXqXqXqXqXqXqXqXqXqXqXqXqXqXqXqXqXqXqXqXqXqXqXqXqXqXqXqXqXqXqXqXqXqXqXqXqXqXqXqXqXqXqXqXqXqXqXqXqXqXqXqXqXqXqXqXqXqXqXqXqXqX",
"qXqXqXqXqXqXqXqXqXqXqXqXqXqXqXqXqXqXqXqXqXqXqXqXqXqXqXqXqXqXqXqXqXqXqXqXqXqXqXqXqXqXqXqXqXqXqXqXqXqXqXqXqXqXqXqXqXqXqXqXqXqXqXqX",
"qXqXqXqXqXqXqXqXqXqXqXqXqXqXqXqXqXqXqXqXqXqXqXqXqXqXqXqXqXqXqXqXqXqXqXqXqXqXqXqXqXqXqXqXqXqXqXqXqXqXqXqXqXqXqXqXqXqXqXqXqXqXqXqX",
"qXqXqXqXqXqXqXqXqXqXqXqXqXqXqXqXqXqXqXqXqXqXqXqXqXqXqXqXqXqXqXqXqXqXqXqXqXqXqXqXqXqXqXqXqXqXqXqXqXqXqXqXqXqXqXqXqXqXqXqXqXqXqXqX",
"qXqXqXqXqXqXqXqXqXqXqXqXqXqXqXqXqXqXqXqXqXqXqXqXqXqXqXqXqXqXqXqXqXqXqXqXqXqXqXqXqXqXqXqXqXqXqXqXqXqXqXqXqXqXqXqXqXqXqXqXqXqXqXqX",
"qXqXqXqXqXqXqXqXqXqXqXqXqXqXqXqXqXqXqXqXqXqXqXqXqXqXqXqXqXqXqXqXqXqXqXqXqXqXqXqXqXqXqXqXqXqXqXqXqXqXqXqXqXqXqXqXqXqXqXqXqXqXqXqX",
"qXqXqXqXqXqXqXqXqXqXqXqXqXqXqXqXqXqXqXqXqXqXqXqXqXqXqXqXqXqXqXqXqXqXqXqXqXqXqXqXqXqXqXqXqXqXqXqXqXqXqXqXqXqXqXqXqXqXqXqXqXqXqXqX",
"qXqXqXqXqXqXqXqXqXqXqXqXqXqXqXqXqXqXqXqXqXqXqXqXqXqXqXqXqXqXqXqXqXqXqXqXqXqXqXqXqXqXqXqXqXqXqXqXqXqXqXqXqXqXqXqXqXqXqXqXqXqXqXqX",
"qXqXqXqXqXqXqXqXqXqXqXqXqXqXqXqXqXqXqXqXqXqXqXqXqXqXqXqXqXqXqXqXqXqXqXqXqXqXqXqXqXqXqXqXqXqXqXqXqXqXqXqXqXqXqXqXqXqXqXqXqXqXqXqX",
"qXqXqXqXqXqXqXqXqXqXqXqXqXqXqXqXqXqXqXqXqXqXqXqXqXqXqXqXqXqXqXqXqXqXqXqXqXqXqXqXqXqXqXqXqXwXqXqXqXqXqXqXqXqXqXqXqXqXqXqXqXqXqXqX",
"qXqXqXqXqXqXqXqXqXqXqXqXqXqXqXqXqXqXqXqXqXqXqXqXqXqXqXqXqXqXqXqXqXqXqXqXqXqXqXqXqXqXqXqXqXqXqXwXqXqXqXqXqXqXqXqXqXqXqXqXqXqXqXqX",
"qXqXqXqXqXqXqXqXqXqXqXqXqXqXqXqXqXqXqXqXqXqXqXqXqXqXqXqXqXqXqXqXqXqXqXqXqXqXqXqXqXqXqXwXqXqXqXqXqXqXqXqXqXqXqXqXqXqXqXqXqXqXqXqX",
"qXqXqXqXqXqXqXqXqXqXqXqXqXqXqXqXwXqXqXqXqXqXqXwXqXqXqXqXqXqXqXqXqXqXqXqXqXqXqXqXqXqXqXqXqXqXqXqXqXqXqXqXqXqXqXqXqXqXqXqXqXqXqXqX",
"qXqXqXqXqXqXqXqXqXqXqXqXqXqXqXqXqXqXqXqXqXqXqXqXqXqXqXqXqXqXqXqXqXqXqXqXqXqXqXqXqXqXqXqXqXqXqXwXqXqXqXqXqXqXqXqXqXqXqXqXqXqXqXqX",
"qXqXqXqXqXqXqXqXqXqXqXqXqXqXqXqXqXqXqXqXqXwXwXwXwXwXwXwXwXwXwXwXwXwXwXwXwXwXwXwXwXwX6XqXqXwXqXqXqXqXqXqXqXqXqXqXqXqXqXqXqXqXqXqX",
"qXqXqXqXqXqXqXqXqXqXqXqXqXqXqXqXqXqXqXqXqXqXqXqXqXqXqXqXqXqXqXqXqXqXqXqXqXqXqXqXqXqXqXqXqXqXwXqXqXqXqXqXqXqXqXqXqXqXqXqXqXqXqXqX",
"qXqXqXqXqXqXqXqXqXqXqXqXqXqXqXqXqXqXqXqXqXwX_.k.l.l.l.l.l.l.l.l.l.l.l.l.l.l.l.l.l.l.z.k.n.qXqXqXqXqXqXqXqXqXqXqXqXqXqXqXqXqXqXqX",
"qXqXqXqXqXqXqXqX8XqXqXqX8X8XqXqXqX1X7X:X=XqXt   X                   X       X X     . . 1 7X;X:X9X9X8XqXqX8XqXqXqXqXqXqXqXqXqXqX",
"qXqXqXqXqXqXqXqXqXqX8XqX8XqXqX9XqXqX3   +   L h.a.f.1.W q.3.M R ^ ^ R ^ A ) z z Y D z B e . @ X ; 8X2X0XqXqXqX8XqXqXqXqXqXqXqXqX",
"qXqXqXqXqXqXqXqX8XwXqXqXqXqXwXqX*Xt w v v 6 N +.&.4.X.G 4.| S _ H H | ` _ ' ' `  ._ ! ~ b 9 q q 0 y _.8X8X0XqX8XqXqXqXqXqXqXqXqX",
"qXqXqXqXqXqXqXqXqXqX8XqXqXqXqX=Xz.$ d.D.j.q.,.>.;.;.;.>.;.>.,.>.( Q ] ~ / ~ / / T ( { | ' O.O._ x # f '.8XqXqX8XqXqXqXqXqXqXqXqX",
"qXqXqXqXqXqXqXqXqXwXqXqXqXqXqXt $  X#XOXOXOX}.<XOX$XOXOX@X@X@X@X2./ C _ ( _ ` | ` ` S ] / A ( ( K [ , 2 8XqXqX2XqXqXqXqXqXqXqXqX",
"qXqXqXqXqXqXqXqXqXqXqXqXqX3X8 P Z.H.`..X|.<X^.A.@XOXOXOX@XOXOX X!.f./ ( [ ~ ~ ^ ..F ] _ ~  .A ` / V * r 8X7XqXqXqXqXqXqXqXqXqXqX",
"qXqXqXqXqXqXqXqXqXqX8XqXqX-X. I .XT. X.X|.@XT.F.@X#XOXOXOX}.OX{.1XB.F ( ^ ~ _ ( ~ _ | F / ~ ~ _ Q G 4 2 8XqXwXqXqXqXqXqXqXqXqXqX",
"qXqXqXqXqXqXqXqXqXqX8XwXqX4X  @./.K.{.+X@X XOX$X X X XOXOX@XOXOX&XA.V ' / _ _ / Q ` / | F ` S ` J E * 2 qX0X8XqXqXqXqXqXqXqXqXqX",
"qXqXqXqXqXqXqXqXqXqX8XqXqX3X. I ).L.~.).OXOX{.>XOXOXR.M.}.@X$XoX<XM.g ] ~ ` ] ( ` / ` / `  ./ A b V 5 r qXqXqXqXqXqXqXqXqXqXqXqX",
"qXqXqXqXqXqXqXqX0XqX8XqX0X-X. #.XXK.P.E.@X%X{.+XOX@X!.L.OXOX}.OX1XC.g Z m Z Z m l F m Z l l Z l g ^ * 2 qX8XqXqXqXqXqXqXqXqXqXqX",
"qXqXqXqXqXqXqXqXqX8X8XqXqX4X1 U N.U.F.].@X+X(.[. XOXOXOXOXOX XOX(.a.n D b n j b h h h h h D h n m c 7 a qX8XwXqXqXqXqXqXqXqXqXqX",
"qXqXqXqXqXqXqXqXqX8XqXqXqXqXqXp - (.W.E.OX@XS.m.OXOXOXOXOXOX%XOX1.} o.-.J h k j m h h b D &.m J <.. v.8X0XqX8XqXqXqXqXqXqXqXqXqX",
"qXqXqXqXqXqXqXqXqXqX8XqXqXqXqXy < E.U.S.N.}.[.].OXOXoXOX%XOX#XOX>.` +.-.%... .{ { ..K } ..-...&.<.X x.8X0XqXqXqXqXqXqXqXqXqXqXqX",
"qXqXqXqXqXqXqXqXqXqXqXqXqXqXqXi : ).Y.S.S.`.OX%XOX XOX%XT.[.OXOX=.` 4.:.:.5.5.5.5.6.6.6.5.5...-...  l.8X0XwXwXqXqXqXqXqXqXqXqXqX",
"qXqXqXqXqXqXqXqXqXqXqXqX8X8XqXy > ).J.P.U.G.[.OX X[. X[.M.L.$X X,.| &.:.8.w.w.g.w.9.t.w.w.t.-.-...  l.8X0X8XqX6XqXqXqXqXqXqXqXqX",
"qXqXqXqXqXqXqXqXqXqXqX6X8X8XqXu - (.~.R.K.U.I.I.Q.W.Q.R.Y.P.Q.Q.=.| 4.0.w.p.9.y.w.w.8.w.t.0.t.6.$.X b.qXqX8XqXqXqXqXqXqXqXqXqXqX",
"qXqXqXqXqXqXqXqXqXqXqXqXqXqXwXi - [.K.P.L.I.U.P.M.K.U.P.I.L.L.I.....0.0.w.0.w.w.w.w.w.w.w.w.w.w.*.  z.qX0X8XqX8XqXqXqXqXqXqXqXqX",
"qXqXqXqXqXqXqXqXqXqXwXqXqX6XqXi , Q.P.W.L.L.L.H.V.J.L.H.P.P.L.~.....y.w.t.w.t.w.0.0.0.0.0.0.w.w.2.  x.qXqX8X0XqXqXqXqXqXqXqXqXqX",
"qXqXqXqXqXqXqXqXqXqXqXqXwXqXqXy % .XI.W.(.E.(.(.W.(.(.(.(.(.!.(.7.7.i.r.u.r.r.r.i.i.i.i.i.i.i.i.s.  c.8X9X8XqXqXqXqXqXqXqXqXqXqX",
"qXqXqXqXqXqXqXqXqXwXwXqXqXwXqX=Xz.O > - - : > = - - = = - = = = o o % $ $ $ $ $ $ $ $ $ $ $ $ $ 5 n.,X8XqX8XqXqXqXqXqXqXqXqXqXqX",
"qXqXqXqXqXqXqXqXqXqXqXwXqXqXwXqX;Xy d i i y d u u u u u d i i d d d d d d d d d d d d d d d d d s qXqXqXqX8XqXqXqXqXqXqXqXqXqXqX",
"qXqXqXqXqXqXqXqXqXqXqXqXqXqXqXqX8XqXqX8X8XqXwX8X8X8X8X8X8X8X8X8XqXqXqXqXqXqXqXqXqXqXqXqXqXqXqX8XqXqXqXqXqXqXqXqXqXqXqXqXqXqXqXqX",
"qXqXqXqXqXqXqXqXwXqXqXqXqXqXqXwXqXqX0XwXqXqXqX6XqXqXqXqXqXqXqXqXqXqXqXqXqXqXqXqXqXqXqXqXqXqXqXqX5XqXqXqXqX0XqXqXqXqXqXqXqXqXqXqX",
"qXqXqXqXqXqXqXqXqXqXqXqXqXqXqXqX8XqXqX8X8XqXqX8XqXqXqXqXqXqXqX8XqXqXqXqXqXqXqXqXqXqXqXqXqXqXqXqX0X8X8XqX8X0XqXqXqXqXqXqXqXqXqXqX",
"qXqXqXqXqXqXqXqXqXqXqXqXqXqXqXqXqXqXqXqXqXqXqXqXqXqXqXqXqXqXqXqXqXqXqXqXqXqXqXqXqXqXqXqXqXqXqXqXqXqXqXqXqXqXqXqXqXqXqXqXqXqXqXqX",
"qXqXqXqXqXqXqXqXqXqXqXqXqXqXqXqXqXqXqXqXqXqXqXqXqXqXqXqXqXqXqXqXqXqXqXqXqXqXqXqXqXqXqXqXqXqXqXqXqXqXqXqXqXqXqXqXqXqXqXqXqXqXqXqX",
"qXqXqXqXqXqXqXqXqXqXqXqXqXqXqXqXqXqXqXqXqXqXqXqXqXqXqXqXqXqXqXqXqXqXqXqXqXqXqXqXqXqXqXqXqXqXqXqXqXqXqXqXqXqXqXqXqXqXqXqXqXqXqXqX",
"qXqXqXqXqXqXqXqXqXqXqXqXqXqXqXqXqXqXqXqXqXqXqXqXqXqXqXqXqXqXqXqXqXqXqXqXqXqXqXqXqXqXqXqXqXqXqXqXqXqXqXqXqXqXqXqXqXqXqXqXqXqXqXqX",
"qXqXqXqXqXqXqXqXqXqXqXqXqXqXqXqXqXqXqXqXqXqXqXqXqXqXqXqXqXqXqXqXqXqXqXqXqXqXqXqXqXqXqXqXqXqXqXqXqXqXqXqXqXqXqXqXqXqXqXqXqXqXqXqX",
"qXqXqXqXqXqXqXqXqXqXqXqXqXqXqXqXqXqXqXqXqXqXqXqXqXqXqXqXqXqXqXqXqXqXqXqXqXqXqXqXqXqXqXqXqXqXqXqXqXqXqXqXqXqXqXqXqXqXqXqXqXqXqXqX",
"qXqXqXqXqXqXqXqXqXqXqXqXqXqXqXqXqXqXqXqXqXqXqXqXqXqXqXqXqXqXqXqXqXqXqXqXqXqXqXqXqXqXqXqXqXqXqXqXqXqXqXqXqXqXqXqXqXqXqXqXqXqXqXqX",
"qXqXqXqXqXqXqXqXqXqXqXqXqXqXqXqXqXqXqXqXqXqXqXqXqXqXqXqXqXqXqXqXqXqXqXqXqXqXqXqXqXqXqXqXqXqXqXqXqXqXqXqXqXqXqXqXqXqXqXqXqXqXqXqX",
"qXqXqXqXqXqXqXqXqXqXqXqXqXqXqXqXqXqXqXqXqXqXqXqXqXqXqXqXqXqXqXqXqXqXqXqXqXqXqXqXqXqXqXqXqXqXqXqXqXqXqXqXqXqXqXqXqXqXqXqXqXqXqXqX",
"qXqXqXqXqXqXqXqXqXqXqXqXqXqXqXqXqXqXqXqXqXqXqXqXqXqXqXqXqXqXqXqXqXqXqXqXqXqXqXqXqXqXqXqXqXqXqXqXqXqXqXqXqXqXqXqXqXqXqXqXqXqXqXqX",
"qXqXqXqXqXqXqXqXqXqXqXqXqXqXqXqXqXqXqXqXqXqXqXqXqXqXqXqXqXqXqXqXqXqXqXqXqXqXqXqXqXqXqXqXqXqXqXqXqXqXqXqXqXqXqXqXqXqXqXqXqXqXqXqX",
"qXqXqXqXqXqXqXqXqXqXqXqXqXqXqXqXqXqXqXqXqXqXqXqXqXqXqXqXqXqXqXqXqXqXqXqXqXqXqXqXqXqXqXqXqXqXqXqXqXqXqXqXqXqXqXqXqXqXqXqXqXqXqXqX",
"qXqXqXqXqXqXqXqXqXqXqXqXqXqXqXqXqXqXqXqXqXqXqXqXqXqXqXqXqXqXqXqXqXqXqXqXqXqXqXqXqXqXqXqXqXqXqXqXqXqXqXqXqXqXqXqXqXqXqXqXqXqXqXqX",
"qXqXqXqXqXqXqXqXqXqXqXqXqXqXqXqXqXqXqXqXqXqXqXqXqXqXqXqXqXqXqXqXqXqXqXqXqXqXqXqXqXqXqXqXqXqXqXqXqXqXqXqXqXqXqXqXqXqXqXqXqXqXqXqX",
"qXqXqXqXqXqXqXqXqXqXqXqXqXqXqXqXqXqXqXqXqXqXqXqXqXqXqXqXqXqXqXqXqXqXqXqXqXqXqXqXqXqXqXqXqXqXqXqXqXqXqXqXqXqXqXqXqXqXqXqXqXqXqXqX",
"qXqXqXqXqXqXqXqXqXqXqXqXqXqXqXqXqXqXqXqXqXqXqXqXqXqXqXqXqXqXqXqXqXqXqXqXqXqXqXqXqXqXqXqXqXqXqXqXqXqXqXqXqXqXqXqXqXqXqXqXqXqXqXqX"
};
