/* XPM */
static char *_f55cdd6fdad4496f018b299c69e464csf8jkgymCjHiJVAP[] = {
/* columns rows colors chars-per-pixel */
"64 64 5 1 ",
"  c black",
". c #990030",
"X c #9c8a3c",
"o c #B4B4B4",
"O c #84664C",
/* pixels */
"OOOOOOOOOOOOOOOOOOOOOOOOOOOO     OOOOOOOOOOOOOOOOOOOOOOOOOOOOOOO",
"OOOOOOOOOOOOOOOOOOOOOOOOOOOO     OOOOOOOOOOOOOOOOOOOOOOOOOOOOOOO",
"OOOOOOOOOOOOOOOOOOOO                    OOOOOOOOOOOOOOOOOOOOOOOO",
"OOOOOOOOOOOOOOOOOO   XXXXXX.......XXXXX     OOOOOOOOOOOoOOOOOOOO",
"OOOOOOOOOOOOOOOOO  XXXXXXXXXXXXXXXXXXXXXXXX.   OOOOOOOOoOOOOOOOO",
"OOOOOOOOOOOOOOOO  XXXXXXXXXXXXXXXXXXXXXXX...XX  OOOOOOooOOOOOOOO",
"OOOOOOOOOOOOOO  XXXXXXXXXXXXXXXXXXXXXXX..XXXXXX  OOOOooOOOOOOOOO",
"OOOOOoOOOOOOO  XXXXXXXXXXXXXXXXXXXXX...XXXXXXXXX  OOOoOOOOOOOOOO",
"OOOOOoOOOOOO  XXXX.......XXXXX......XXXXXXXXXXXXX OOOooOOOOOOOOO",
"OOOOOooOOOO  XXXXXXXXXXX.......XXXXXXXXXXXXXXXXX. OOOOooOOOOOOOO",
"OOOOOooOOOO XXXXXXXXXXXXXXXXXXXXXXXXXXXXXXXXXXXX.  OOOOoOOOOOOOO",
"OOOOOoOOOOO XXXXXXXXXXXXXXXXXXXXXXXXXXXXXXXXXXXXXX OOOOoOOOOOOOO",
"OOOOoOOOOO  XXXXXXXXXXXXXXXXXXXXXXXXXXXXX.XXXXXXXX OOOooOOOOOOOO",
"OOOOoOOOOO XXXXXXXXXXXXXXXXXXXXXXXX.......XXXXXXXX OoooOOOOOOOOO",
"OOOOoOOOOO..XXXXXXXXXXXXXXXXXXXXXXXXXXXXXXXXXXXXXX OOOOOOOOOOOOO",
"OOOOoOOOOO X....XXXXXXXXXXXXXXXXXXXXXXXXXXXXXXXoooo OOOOOOOOOOOO",
"OOOOOooooO XXXXXXXXXXXXXXXXXXXXXXXXXXXXXXXXXXXXoX.. OOOOOOOOOOOO",
"OOOOOOOOOO XXXXXXXXXXXXXXXXXXXXXXXXXXXXXXXXXXXXX..X OOOOOOOOOOOO",
"OOOOOOOOOO XXXXXXXXXXXXXXXXXXXXXXXXXXXXXXXXXXXXXXXX OOOOOOOOOOOO",
"OOOOOOOOOO XXXXXXXXXXXXXXXXXXXXXXXXXXXXXXXXXXXXXXXX OOOOOOOOOOOO",
"OOOOOOOOOO XX..XXXXXXXXXXXXXXXXXXXXXXXXXXXXXXXXXXXX OOOOOOOOOOOO",
"OOOOOOOOOO XXX..........XXXXXXXXXXXXXXXXXXXXXXX..XX OOOOOOOOOOOO",
"OOOOOOOoOO XXXXXXXXXXXXXXXXXXXXX....XXXX.......XXXX OOOOOOOOOOOO",
"OOOOOOOooO  XXXXXXXXXXXXXXXXXXXXXXXXXXXX..ooooXXXXX OOOOOOOOOOOO",
"OOOOOOOOoooooXXXXXXXXXXXXXXXXXXXXXXXXXXXXXXXXXXXXX  OOOOOOOOOOOO",
"OOOOOOOOOOO ooXXXXXXXXXXXXXXXXXXXXXXXXXXXXXXXXXXXX OOOOOOOOOOOOO",
"OOOOOOOOOOO XoXXX.XXXXXXXXXXXXXXXXXXXXXXXXXXXXX... OOOOOOOOOOOOO",
"OOOOOOOOOOO  oXXXX.....XXXXXXXXXXXXXXXXXXX.....XXX OOOOOOOOOOOOO",
"OOOOOOOOOOOO oXXXXXXXXXXXXXXXXXXXXX.XXXXXXXXXXXXXX OOOOOOOOOOOOO",
"OOOOOOOOOOOO oXXXXXXXXXXXXXXX......XXXXXXXXXXXXXXX OOOOOOOOOOOOO",
"OOOOOOOOOOOOOoXXXXXXXXXXX.....XXXXXXXXXXXXXXXXXXXX OOOOOOOOOOOOO",
"OOOOOOOOOOOOOooXoXXXXXXXXXXXXXXXXXXXXXXXXXXXXXXX.. OOOOOOOOOOOOO",
"OOOOOOOOOOOOO  ooooXXXXXXXXXXXXXXXXXXXXX......... OOOOOOOOOOOOOO",
"OOOOOOOOOOOOOO XXXXXXXXXXXXXXXXXXXXXXXXXXXXXXXXXX OOOOOOOOOOOOOO",
"OOOOOOOOOOOOOO XXXXXXXXXXXXXXXXXXXXXXXXXXXXXXXXXX OOOOOOOOOOOOOO",
"OOOOOOOOOOOOOOO XXXXXXXXXXXXXXXXXooXXXXXXXXXXXXXX OOOOOOoOOOOOOO",
"OOOOOOOOOOOOOOO X.XXXXXXXXXXXXXXXoXXXXXXXXXXXXXX  OOOOOoOOOOOOOO",
"OOOOOOOOOOOOOOO  ...XXXXXXXXXXXXXoXXXXXXXXXXXXXX OOOOoooOOOOOOOO",
"OOOOOOOOOOOOOOOO XXXXXXXX.....XXXoXXXXXXXXXXXXX. OOOooOOOOOOOOOO",
"OOOOOOOOOOOOOOOO  XXXXXXXXXXXXXXXooXXXXXXXX....  OOOoOOOOOOOOOOO",
"OOOOOOOOOOOOOOOOO XXXXXXXXXXXXXXXoo.........XXX OOOOoOOOOOOOOOOO",
"OOOOOOOOOOOOOOOOO XXXXXXXXXXXXXXXo.XXXXXXXXXXXX OOOOoOOOOOOOOOOO",
"OOOOOOOOOOOOOOOOO  XXXXXXXXXXXXXXoXXXXXXXXXXXX OOOOOoOOOOOOOOOOO",
"OOOOOOOOOOOOOOOOOO ....XXXXXXXXXXXXXXXXXXXXXXX OOOOOoOOOOOOOOOOO",
"OOOOOOOOOOOOOOOOOO XXX..XXXXXXXXXXXXXXXXXXXXXX OOOOoOOOOOOOOOOOO",
"OOOOOOOOOOOOOOOOOO  XXXXXXXXXX.XXXXXX........  ooooOOOOOOOOOOOOO",
"OOOOOOOOOOOOOOOOOOO XXXXXXXXXX.......XXXXXXXX OOOOOOOOOOOOOOOOOO",
"OOOOOOOOOOOOOOOOOOO XXXXXXXXXXXXXXXXXXXXXXXXX OOOOOOOOOOOOOOOOOO",
"OOOOOOOOOOOOOOOOOOOO XXXXXXXXXXXXXXXXXXXXXXX. OOOOOOOOOOOOOOOOOO",
"OOOOOOOOOOOOOOOOOOOO XXXXXXXXXXXXXXXXXXXXX..X OOOOOOOOOOOOOOOOOO",
"OOOOOOOOOOOOOOOOOOOO  XX.....XXX..XXX......X OOOOOOOOOOOOOOOOOOO",
"OOOOOOOOOOOOOOOOOOOOO XXXXXX..XXX.....XXXXXX OOOOOOOOOOOOOOOOOOO",
"OOOOOOOOOOOOOOOOOOOOO XXXXXXXXXXXXXXXXXXXXXX OOOOOOOOOOOOOOOOOOO",
"OOOOOOOOOOOOOOOOOOOOOO XXXXXXXXXXXXXXXXXXXX  OOOOOOOOOOOOOOOOOOO",
"OOOOOOOOOOOOOOOOOOOOOO  XXXXXXXXXXXXXXXXXX..OOOOOOOOOOOOOOOOOOOO",
"OOOOOOOOOOOOOOOOOOOOOOO XXXXX........XX...  OOOOOOOOOOOOOOOOOOOO",
"OOOOOOOOOOOOOOOOOOOOOOOO XXXXXXXXXXXXXXXXX OOOOOOOOOOOOOOOOOOOOO",
"OOOOOOOOOOOOOOOOOOOOOOOOO  XXXXXXXXXXXXX   OOOOOOOOOOOOOOOOOOOOO",
"OOOOOOOOOOOOOOOOOOOOOOOOOO      XX       OOOOOOOOOOOOOOOOOOOOOOO",
"OOOOOOOOOOOOOOOOOOOOOOOOOOOOO     OOOOOOOOOOOOOOOOOOOOOOOOOOOOOO",
"OOOOOOOOOOOOOOOOOOOOOOOOOOOOO     OOOOOOOOOOOOOOOOOOOOOOOOOOOOOO",
"OOOOOOOOOOOOOOOOOOOOOOOOOOOOO     OOOOOOOOOOOOOOOOOOOOOOOOOOOOOO",
"OOOOOOOOOOOOOOOOOOOOOOOOOOOOO     OOOOOOOOOOOOOOOOOOOOOOOOOOOOOO",
"OOOOOOOOOOOOOOOOOOOOOOOOOOOOO     OOOOOOOOOOOOOOOOOOOOOOOOOOOOOO"
};
