/* XPM */
static char *af98fdbc617d4a60c6d88ccfa0d3a9e45dpUCeS4OmtYsEXL[] = {
/* columns rows colors chars-per-pixel */
"64 64 147 2 ",
"   c #381C07",
".  c #3B1E0B",
"X  c #3E210A",
"o  c #42240D",
"O  c #432512",
"+  c #462914",
"@  c #4A2C15",
"#  c #462919",
"$  c #4B2D1A",
"%  c #4F3117",
"&  c #4E311C",
"*  c #503216",
"=  c #52341C",
"-  c #56391E",
";  c #593B1F",
":  c #4F2F20",
">  c #4E3120",
",  c #543522",
"<  c #563923",
"1  c #5A3C24",
"2  c #5C3D2A",
"3  c #5E4025",
"4  c #5E412B",
"5  c #614327",
"6  c #62442C",
"7  c #67492E",
"8  c #694B2E",
"9  c #644532",
"0  c #664932",
"q  c #6A4C34",
"w  c #6D4E3A",
"e  c #6F5136",
"r  c #6E513A",
"t  c #715336",
"y  c #72543C",
"u  c #76593D",
"i  c #795B3F",
"p  c #7E613F",
"a  c #6F5240",
"s  c #745641",
"d  c #765943",
"f  c #7B5D43",
"g  c #7C5E4A",
"h  c #7E6143",
"j  c #7F6242",
"k  c #7D6041",
"l  c #7E6044",
"z  c #7F6145",
"x  c #7D6244",
"c  c #7D6245",
"v  c #7F6244",
"b  c #7E6345",
"n  c #7C6146",
"m  c #7E6046",
"M  c #7F6147",
"N  c #7F6446",
"B  c #7E6145",
"V  c #7E6048",
"C  c #7C604A",
"Z  c #7D614B",
"A  c #7F604B",
"S  c #7F6449",
"D  c #7E614A",
"F  c #806341",
"G  c #806343",
"H  c #816442",
"J  c #826543",
"K  c #806345",
"L  c #806246",
"P  c #816347",
"I  c #816444",
"U  c #826545",
"Y  c #816446",
"T  c #826547",
"R  c #836646",
"E  c #846747",
"W  c #826547",
"Q  c #866947",
"!  c #806248",
"~  c #816349",
"^  c #80624A",
"/  c #806548",
"(  c #826448",
")  c #836549",
"_  c #816649",
"`  c #836648",
"'  c #826749",
"]  c #80654A",
"[  c #82644A",
"{  c #83654B",
"}  c #81664B",
"|  c #82674A",
" . c #846749",
".. c #84664A",
"X. c #85674B",
"o. c #80614C",
"O. c #81624D",
"+. c #82634E",
"@. c #80644C",
"#. c #81654D",
"$. c #82644C",
"%. c #83654D",
"&. c #82674C",
"*. c #82664E",
"=. c #83674F",
"-. c #84664C",
";. c #85674D",
":. c #84664E",
">. c #85674F",
",. c #83654A",
"<. c #83684B",
"1. c #856848",
"2. c #866949",
"3. c #85684A",
"4. c #86694B",
"5. c #876A4A",
"6. c #86684C",
"7. c #87694D",
"8. c #876A4C",
"9. c #86684E",
"0. c #87694F",
"q. c #86684C",
"w. c #886B4B",
"e. c #896C4A",
"r. c #886B4D",
"t. c #886A4E",
"y. c #896B4F",
"u. c #896B4E",
"i. c #856651",
"p. c #846551",
"a. c #866850",
"s. c #876951",
"d. c #866B50",
"f. c #866952",
"g. c #886A50",
"h. c #886A52",
"j. c #896B53",
"k. c #8A6C50",
"l. c #8B6D51",
"z. c #8A6C52",
"x. c #8B6D53",
"c. c #886954",
"v. c #8B6D55",
"b. c #8C6E56",
"n. c #896C53",
"m. c #8D6E59",
"M. c #937761",
/* pixels */
"T T T T T T T T T T T T T T T T T T T T T T T T T 1.3.f  .v v 6.;.;.;.;.~ ` ` ~ ` ` T T T T T T T T T T T T T T T T T T T T T T ",
"T T T T T T T T T T T T T T T T T T T T T T T T k T K 3.6.6.k.y e e t f 6. .` K ` ` T T T T T T T T T T T T T T T T T T T T T T ",
"T T T T T T T T T T T T T T T T ` ` ` T T T T T 3.k 3.T v K q 5 y t q t v  .K T T T T T ` ` ` ` T T T T T T T T T T T T T T T T ",
"T T T T T T T T T T T T T T T T ` ` ` T T T T T 3.k 3.K ` y 6 i 6.3.u 8 u ` ` ` T T T T ` ` ` ` T T T T T T T T T T T T T T T T ",
"T T T T T T T T T T T T T T T T ` ` ` T T T T T v 3.f  .` 5 f y.T e.k t k 3.T T T T T T ` ` ` ` T T T T T T T T T T T T T T T T ",
"T T T T T T T T T T T T T T T T ` T ` ` ~ T T T T K K  .t 5 6.v k J G J E T k E T T T T ` ` ` ` T T T T T T T T T T T T T T T T ",
"T T T T T T T T T T T T T T T T ` ` ` ` ` ` ` ` ` f 6.6.7 u k.`  .T T 3. .T K ` T T T T T T T T T T T T T T T T T T T T T T T T ",
"T T T T T T T T T T T T T T T T ~ ~ ` ` ` ` ` ` K k.K y.7 u ;.~ ` K ` ` ` 6.;.~ ` T T T T T T T T T T T T T T T T T T T T T T T ",
"T T T T T T T T T T T T `  .` T ` ` ` `  .v y q q t t t 0 q 6.;.v.p.o.d u d f ` ~  .v  .3.G E k T T T T T T T T T T T T T T T T ",
"T T T T T T T T T T ` ` T K T ` ~ ` v t 5 - 1 5 t f f f 7 1 e d q 6 , = 0 g g q g.~ y.k k w.G 3.T T T T T T T T T T T T T T T T ",
"T T T T T T T T T T ` T T T T  .k.t 1 - 5 t f K  . .K 6.` i 0 + O , 2 , 1 0 w q t ~  .T K  .3.T T T T T T T T T T T T T T T T T ",
"T T T T T T T T T ` T K T 3.` v 5 5 7 u  .y.6.` `  .K ` 6.y.f 3 2 2 < , 1 2 6 3 q 0 8 K y.f T ` T T T T T T T T T T T T T T T T ",
"T T T T T T T T T ` T T  .3.f q 2 r ~ %.v f K  .K T T ` v f ` 6.y d V o.f r q r e 5 5 5 t y.` ` T T T T T T T T T T T T T T T T ",
"T T T T T T T T T T ` ` ` k e 5 t f ;.;. .6. .v ` T T `  . .K v ;.;.` ` ~ v v v t d t 1 2 f s.~ ` T T T T T T T T T T T T T T T ",
"T T T T T T T T ` K ` 3.k t 8 q ` %.%.~ K ` ` T v ` ` k T 3.` T v T 3.3. .` K v f ~ u t 6 1 s s.` T T T T T T T ` ` ` ` ` ` ` ` ",
"T T T T T T T T  .v T 3.i 8 q K  .` ` ` ` ` `  . .`  .6.` u t f 3.` K T ` T ` 6.K ;.;.r 2 6 q f ` T T T T T T T ` ` ` ` ` ` ` ` ",
"T T T T T T T T T  .K  .q e n ` v 6.v 6.K ` ;.~ ;.;.V q 0 0 - t ;.~ ~ ` K T T  .T k.d s.q , 2 6 s.v ` v T 3.T K T ` ` ` T T T T ",
"T T T T T T T T ` ` T i 4 r v `  .k y.f 6.` V v.g 6 q d o.%.d < d ;.s.f 6.` k 3.K T y.~ %.1 2 2 0 ` ` v T T T T ` ` ` T T T T T ",
"T T T T T T T T ` K ` e 1 r S ` ` T 3.k y.v ;.d @ 0 V ;.g.%.V < # 0 d 6.v f 6.K T T  .~ s.u 6 w 1 u <.N E k 3.T ` ` T T T T T T ",
"T T T T T T T T ` K 6.7 - t %.` `  .T  .K ` v = 1 b.s.v ~ ` v d 1 o @ f  .6.3.T  .3.f  .V g.r u 0 3 ` `  .v 3.T ` ` T T T T T T ",
"T T T T T T T T ` v g.0 = r p.`  .f  . .~ v 5 = ;.;.f ` v  . .6.%.1 1 = i K i T ` T ` ` ` ;.f 6 r 2 r %.` T T T ` ~ ~ ~ T T T T ",
"T T T T T T T T ` K ;.q & q %.%.;.K ~ ` g.6 - e ` u 6.6.` k T v ~ g.t t ; q t f T `  .` ` ~ 6.6 2 w < %.` ` K ` ~ ~ ~ ~ T T T T ",
"T T T T T T T T ` ` ;.u & 6 V S ~ g.f %.u < 6 `  . .y.f  .3.E T g.~ ` k.;.- t e K 6.K  .v  .6.u < w + V ` ` ` ` ` ` ~ ~ T T T T ",
"T T T T T T T T T ` ;.~ < 4 d A o.%.s.~ = 6 e ` K ` v  .T  .K ` ` ~ ` ~ ~ v 2 7 f  .` `  . .K f 9 2 # d %.~ 6.v ` ` ~ ` T T T T ",
"` ` T T T T T T ` ` ` ;.= q q 9 p.p.y 6 + 6 f ;.`  . .T T E E T ` v 6.` ~ 6.t < t ` K ~  .` ` f w , O C %.%.v ` ` ` ` ` T T T T ",
"` ` T T T T T T ` T ` V = 6 < 4 A 0 2 # , ~ ` ~ K K T T T T J E  .` ~ 6.v 6.6.= = ` 6.v  .K K %.4 > $ A %.` T ` ` ` ` ` T T T T ",
"` ` T T T T T T T T 6.f , < & w w $ $ 1 d V 6.~ ` `  . .T G T T T T  .` v d q 6 = y ~ ;.` ~ ` u < > > A ~ ` T T T T ` ` T T T T ",
"` ` T T T T T T T K 6.V 0 = $ w 9 O # 0 v.V s.~ v `  .T T T T k ` k K K 6.d 1 2 q 6 0 g %.v ;.f 4 , , g ~  .` T T T T ` T T T T ",
"T T T T T T T T  .v %.~ s $ # , , # 9 w %.g.%.6.k.6.T K K T T 3.E E k  .;.~ ;.y 0 2 2 d v.y q s 0 < 1 V `  .T T T T T T ` ` T T ",
"T T T T T T T T ` T ;.~ 0 $ > # , : 2 , 1 , = 1 1 3 e T y.` v T T E  . .~ f d y 2 2 2 g p.q 6 0 2 , 6 %. .K k 3.T T T T ` ` T T ",
"T T T T T T T T T ` ;.V < 4 9 $ 9 2 & 1 w w d t y u f v v v K 6.T k T K g.f , = 1 , # , < = 2 9 $ $ 0 &.` K k T T T T T ` ` T T ",
"` T T T T T T T 3.K ~ V < Z s O 9 9 d w p.c.d 0 q v 6.` K  . .K T E T ~ V p.v.s q s 6 < 1 $ 1 y + $ 0 %.` 3.T T T T T T ` ` T T ",
"T T T T T T T T K K 6.y , d 9 & w g = 2 , $ $ = 3 ` v V  .f  .` 3.T ` %.p.s g 0 & < 1 0 v.q < < 1 $ w ~ ~ ` ` E T T T T T T ~ ~ ",
"T T T T T T T T ` K ;.u $ q 0 & s 0 # O $ y o.w 5 0 f ` y.y.k ` k 6.~ ;.g 2 & # y < X = w C s # w 2 3 ;.;.` ~ K T T T T T T ~ ~ ",
"T T T T T T T T ` ` ;.y $ 6 s 2 , g 6 y 2 p.o.b.t X 6 y.v T T ` G 3.v ;.1 . , v.p.%.6 & $ v.2 O q 0 = ;.%.`  .T T T T T T T ` ` ",
"T T T T T T T T `  .6.q = q o.y $ o.c.v.q y g.~ 6 e f  . .K  . .3.v K 6.= o 2 o.s.s r v.%.d $ # , q < ;.~ ~  . .T T T T T T ` ` ",
"T T T T T T T T ~ ` 6.q 1 0 d o., 6 w p.g 5 0 r y g.f K 6.T 3.K T T  .;.w q s s d r s.r A 4 . 2 4 w 6 %.;.K ` T T T T T T T ` ` ",
"T T T T T T T T ` K ;.u 0 5 q v.3 1 1 $ r g.t e t 2 8 ` ` v  .T T 3.` f ~ y r d s s 3 4 p., . a w 0 1 d 6.` T T T T T T T T ` ` ",
"T T T T T T T T ` ` %.` t 5 0 f 0 $ g.q 2 < 2 - - 8 v ` 3.3.v 3.3.T v K 6.6 + @ & & 0 s.r + O d 0 5 < d ;.K  .T T T T T T T ` ` ",
"T T T T T T T T `  .V ;.r 5 0 6 w $ f g.;.v d d ` 6.6.K v ` 3.k K T  .`  .~ d d d V c.A 0   2 A 1 0 5 ` ` v 3.v T T T T T T ` ` ",
"T T T T T T T T T  .v 6.f 2 0 5 2 = t ;.V %.g. . .K  .f 6. .v ` K 3.K 3.T `  .6.%.j.g f.9 . 0 < u 5 7 ~ 6.K K ` T T T T T T T T ",
"T T T T T T T T T  . .K ` q = r V 2 6 %.6.;.f K f  . .6.v  .K 6.`  .f K v ` ` K ` f c.V + + 0 g 0 5 d k.v v y.K T T T T T T T T ",
"T T T T T T T T T  . .v ;.f = 0 V y o t ;.~ `  .`  .v  .~ ;.` f ;.6.` y.T k v 6.&.V A 0 X r M.f 3 t  . .K K ` K T T T T T T T T ",
"T T T T T T T T T ` K  .` ` t 1 q V # = ~ `  .` 6.` ` ` ` f k.s.f %.v K v 3. .v %.S f & 4 %.y 1 q K  .v ` ` v ` T T T T T T T T ",
"T T T T T T T T ` T K 6.` K 6.3 , 0 2 o 7 6.K v f K 6.v 0 = q d v.0 = t y.E k ` n j.2 @ f 0 @ t  .K `  .K ` 6.K ` ` T T T T T T ",
"T T T T T T T T  .K  .~  .K ` f 2 4 < 1 o f  .`  . .~ V 6 @ o + o 3 u  .K G T  .d.r & r 0 5 6.` 3.T T `  .K K  .` ` T T T T T T ",
"T T T T T T T T T T 3.v ` ` v v.V g 0 o.@ 2 ` ;.` K v 6.s.;.d d g p.~ 6.T T T K N q q s d k.` v k 3.K v ;.~ f  .` ` T T T T T T ",
"T T T T T T T T K 3.K ` K 6.~ ~ s.f s.%.y o f ;.;.~ v 0 6 3 6 w s 2 @ 5 u T ` T N q r f s.N v <.` K  . .v  .y.v ` ` T T T T T T ",
"T T T T T T T T T T T T T T T T K  .` ` %.6 @ %.%.;.;.y $ X # O O + o 1 u f y.f t v  .` K `  .K T T T T T T T T T T T T T T T T ",
"T T T T T T T T T T T T T T T T T G T  .6.f = 6 g.f f ;.w , = $ 0 # 2 ~ v.6.v 3 f T 3.` K ` ` K T T T T T T T T T T T T T T T T ",
"T T T T T T T T T T T T T T T T 3.k ` ` ~ ~ + + e 6.g.;.;.s 0 2 0 g m.V f ;.* t ` ` ` T ` ` ` ` T T T T T T T T T T T T T T T T ",
"T T T T T T T T T T T T T T T T E p E 3.K ` % 6 = d ` v ;.;.o.p.p.V %.s.;.= 5 k. .T K T ` ` ` ` T T T T T T T T T T T T T T T T ",
"T T T T T T T T T T T T T T T T J J T T ` ` = f f = ;  .k.~ ;.o.%.v.o.f = o f  .` K T T T T `  .T T T T T T T T T T T T T T T T ",
"T T T T T T T T T T T T T T T T J 3.T k  .~ = d 6.6.7 = 8 K g.;.s.y ~ 0 u 1 f  .` ` ` ` ` T K ` T T T T T T T T T T T T T T T T ",
"T T T T T T T T T T T T T T T T J J T T g.%.5 ~ ~ v y.f * @ 6 3 1 6 t 6.f = K K ` ` ` ` T ` T T T T T T T T T T T T T T T T T T ",
"T T T T T T T T T T T T T T T T E k  .6.~ t 6 ;.~ ;.v ~ v t t f d ;.g.~ d 2 y.K ` ` ` K T  .` T T T T T T T T T T T T T T T T T ",
"T T T T T T T T T T T T T T T T  .v  .~ o.1 6 p.p.;.~ f ~ ;.s.;.;.f ` g.v = 6.` ` K K K T ` ` T T T T T T T T T T T T T T T T T ",
"T T T T T T T T T T T T T T T T K  .~ s.s + O 2 d V s.g.6.` ~ ~ 6.g.` t q @ u ~ ` ` ` ` ` ` T T T T T T T T T T T T T T T T T T ",
"T T T T T T T T T T T T T T T T K 6.f f = O , 6 w q t f ~ ` ` ` q q 5 q d @ % e ` ` ` ` ` T T T T T T T T T T T T T T T T T T T ",
"T T T T T T T T T T T T T T T T 6.` ` d o & 0 = g u q 7 0 8 7 5 8 v ` 6.k.5 @ 6 V ~ ` ` ` T ` ` T T T T T T T T T T T T T T T T ",
"T T T T T T T T T T T T T T T T k v g.q O 2 d s 2 u k.k.v f K 3.l. .f  .` 5 @ q v ~ ` ` ` T ` ` T T T T T T T T T T T T T T T T ",
"T T T T T T T T T T T T T T T T T 3.;.1 $ = < w s f K k K 3.3.k v T ` K  .k.q 1 ` %.` ` ` ` T T T T T T T T T T T T T T T T T T ",
"T T T T T T T T T T T T T T T T T ` ~ u o.s 1 1 2 t ` 3.T T 3.3.6.` 3. .v ` f f ` ` ` ` ` ` T T T T T T T T T T T T T T T T T T ",
"T T T T T T T T T T T T T T T T T T ` ` %.p.s.%.;.6. .T T J J J T K  . .K  .;.` ` ~ K K ` ` T T T T T T T T T T T T T T T T T T "
};
