/* XPM */
static char *_06bbc3b17a741d2d7ba2a50484014ebjz16Oorsd1k18hBf[] = {
/* columns rows colors chars-per-pixel */
"64 64 4 1 ",
"  c #22B14C",
". c #A8E61D",
"X c #FFF200",
"o c #FFA3B1",
/* pixels */
"                       ..                                       ",
"                       ...                                      ",
"         oooo  o         .             .                        ",
"         ooooooooo                    ...                       ",
"          ooooooooo                     .....                   ",
"        ooooXXXXoooo                                            ",
"        ooooXXXooooo                                            ",
"         oooooooooo                                             ",
"          oooooooo                                              ",
"                                                                ",
"                                           ooo                  ",
"                                        oooooo                  ",
"                                        oooooooo                ",
"                                        oooXXoooo               ",
"                                        oooXXXooo               ",
"                                          oooooo                ",
"                                          oooo                  ",
"                                          oooo                  ",
"                                           oo                   ",
"                                                                ",
"                                                                ",
"                                                                ",
"                                                                ",
"                                                                ",
"                                                                ",
"                                                                ",
"     .                                                          ",
"  ....                                                          ",
"...                                                            .",
".                                .                     .........",
"                                 ..  ....             .. .      ",
"                                  ....  ..                      ",
"                                         .                      ",
"                                        .                       ",
"                                                                ",
"                                                                ",
"                        oooo                                    ",
"                     ooooooooo                                  ",
"                    ooooXXooooo                                 ",
"                    ooooXXXoooo                                 ",
"                    ooooXXoooo                                  ",
"                     oooooooo                                   ",
"                     ooo ooo                                    ",
"                                                                ",
"                                                ooo             ",
"                                               ooooo            ",
"                                               ooooooo          ",
"                                               oooooooo         ",
"                                               oooooooo         ",
"                                             ooooXXoooo         ",
"                                            ooooXXXooo          ",
"                                            ooooXXoooo          ",
"                                            oooooooooo          ",
"     ...                                     ooooooooo          ",
"  .... ..                                       oooooo          ",
"   ..                                            ooooo          ",
"                                                                ",
"                                                                ",
"                 .                                              ",
"                 .                             .......          ",
"                 ......                          ..             ",
"                      ..                                        ",
"                       ..                                       ",
"                       ..                                       "
};
